<svg width="122.88" height="118.29" xmlns="http://www.w3.org/2000/svg" xml:space="preserve" version="1.1">

 <g>
  <title>Layer 1</title>
  <g stroke="null" id="svg_1">
   <path fill="#529D94" id="svg_2" d="m110.54786,19.37l0,86.39l-107.78601,0l0,12.53l114.00711,0c3.4385,0 6.23104,-2.81 6.23104,-6.27l0,-92.65l-12.45214,0l0,0zm-27.95519,-1.6l1.03354,8.14c0.31801,2.51 2.59378,4.28 5.08818,3.97c2.4944,-0.32 4.2534,-2.61 3.94533,-5.12l-2.63353,-20.62c-0.13913,-1.45 -0.96397,-2.81 -2.31552,-3.57c-1.23229,-0.69 -2.63353,-0.74 -3.85589,-0.27l-19.73659,7.65c-2.34533,0.91 -3.50806,3.56 -2.60372,5.92c0.90435,2.36 3.53788,3.53 5.88321,2.62l6.73787,-2.61c-7.38383,10.08 -16.22852,18.5 -25.7788,25.06c-13.754,9.45 -28.91917,15 -43.23962,16.04c-2.51428,0.18 -4.40247,2.37 -4.22359,4.9c0.17888,2.53 2.35527,4.43 4.86955,4.25c15.89063,-1.13 32.64586,-7.23 47.73153,-17.6c10.85214,-7.45 20.85956,-17.13 29.09805,-28.76l0,0zm-74.37493,67.89l0,11.24l14.1217,0l0,-11.24l-14.1217,0l0,0zm25.24216,-11.83l0,23.07l14.11176,0l0,-23.07l-14.11176,0l0,0zm25.23222,-8.14l0,31.21l14.11176,0l0,-31.21l-14.11176,0l0,0zm25.23222,-12.4l0,43.61l14.1217,0l0,-43.61l-14.1217,0l0,0z"/>
  </g>
 </g>
</svg>